<?xml version="1.0" encoding="utf-8"?>
<!-- Generator: Adobe Illustrator 27.9.0, SVG Export Plug-In . SVG Version: 6.00 Build 0)  -->
<svg version="1.1" id="Layer_1" xmlns="http://www.w3.org/2000/svg" xmlns:xlink="http://www.w3.org/1999/xlink" x="0px" y="0px"
	 viewBox="0 0 84 33" style="enable-background:new 0 0 84 33;" xml:space="preserve">
<style type="text/css">
	.st0{fill:#FFFFFF;}
</style>
<g id="Layer_4">
	<g>
		<path class="st0" d="M9.9,33V18.7h2V33H9.9z M11.3,33v-1.9h3.2c1.1,0,1.9-0.3,2.5-0.8c0.6-0.5,0.9-1.3,0.9-2.3v-4.2
			c0-1-0.3-1.8-0.9-2.3c-0.6-0.5-1.4-0.8-2.5-0.8h-3.2v-1.9h3.2c1.7,0,3.1,0.4,4,1.3c0.9,0.9,1.4,2.2,1.4,3.8v4c0,1.1-0.2,2-0.6,2.8
			c-0.4,0.8-1,1.3-1.9,1.7c-0.8,0.4-1.8,0.6-2.9,0.6H11.3z"/>
		<path class="st0" d="M27.4,33.1c-1,0-1.9-0.2-2.6-0.7s-1.3-1-1.8-1.8c-0.4-0.8-0.6-1.7-0.6-2.8v-4c0-1.1,0.2-2,0.6-2.8
			c0.4-0.8,1-1.4,1.8-1.8s1.6-0.7,2.6-0.7s1.9,0.2,2.6,0.7c0.8,0.4,1.3,1,1.8,1.8c0.4,0.8,0.6,1.7,0.6,2.8v4c0,1.1-0.2,2-0.6,2.8
			c-0.4,0.8-1,1.4-1.8,1.8C29.3,32.9,28.5,33.1,27.4,33.1z M27.4,31.2c0.9,0,1.6-0.3,2.2-0.9c0.5-0.6,0.8-1.4,0.8-2.3v-4.2
			c0-1-0.3-1.8-0.8-2.3c-0.5-0.6-1.3-0.9-2.2-0.9c-0.9,0-1.6,0.3-2.2,0.9c-0.5,0.6-0.8,1.4-0.8,2.3V28c0,1,0.3,1.7,0.8,2.3
			C25.8,30.9,26.6,31.2,27.4,31.2z"/>
		<path class="st0" d="M35.5,33V18.7h1.8l7,11L44.1,30V18.7h2V33h-1.8l-7-10.9l0.2-0.3V33H35.5z"/>
		<path class="st0" d="M48,33l5.3-14.3H55L60.3,33h-2.2l-4-11.5l-4,11.5H48z M50.4,29.9V28H58v1.9H50.4z"/>
		<path class="st0" d="M62.4,33V18.7h2V33H62.4z M63.4,33v-1.9h8.2V33H63.4z"/>
		<path class="st0" d="M73.9,33V18.7h2V33H73.9z M75.3,33v-1.9h3.2c1.1,0,1.9-0.3,2.5-0.8c0.6-0.5,0.9-1.3,0.9-2.3v-4.2
			c0-1-0.3-1.8-0.9-2.3c-0.6-0.5-1.4-0.8-2.5-0.8h-3.2v-1.9h3.2c1.7,0,3.1,0.4,4,1.3c0.9,0.9,1.4,2.2,1.4,3.8v4c0,1.1-0.2,2-0.6,2.8
			c-0.4,0.8-1,1.3-1.9,1.7c-0.8,0.4-1.8,0.6-2.9,0.6H75.3z"/>
	</g>
</g>
<g id="Layer_3">
	<g>
		<path class="st0" d="M5.2,14.7c-1,0-1.9-0.2-2.6-0.7c-0.8-0.4-1.3-1-1.8-1.8c-0.4-0.8-0.6-1.7-0.6-2.8v-4c0-1.1,0.2-2,0.6-2.8
			c0.4-0.8,1-1.4,1.8-1.8c0.8-0.4,1.6-0.7,2.6-0.7c1,0,1.9,0.2,2.6,0.7c0.8,0.4,1.3,1,1.8,1.8c0.4,0.8,0.6,1.7,0.6,2.8v4
			c0,1.1-0.2,2-0.6,2.8c-0.4,0.8-1,1.4-1.8,1.8C7.1,14.4,6.2,14.7,5.2,14.7z M5.2,12.7c0.9,0,1.6-0.3,2.2-0.9
			c0.5-0.6,0.8-1.4,0.8-2.3V5.3c0-1-0.3-1.8-0.8-2.3C6.8,2.4,6.1,2.1,5.2,2.1c-0.9,0-1.6,0.3-2.2,0.9C2.5,3.5,2.3,4.3,2.3,5.3v4.2
			c0,1,0.3,1.7,0.8,2.3C3.6,12.4,4.3,12.7,5.2,12.7z"/>
		<path class="st0" d="M13.3,14.5V0.2h2v14.3H13.3z M14.5,14.5v-1.9h3.9c1.1,0,1.8-0.2,2.3-0.6c0.4-0.4,0.7-0.9,0.7-1.6v0
			c0-0.7-0.2-1.3-0.6-1.7c-0.4-0.4-1-0.6-1.9-0.6h-4.4V6.3h4.4c0.7,0,1.3-0.2,1.7-0.5c0.4-0.4,0.6-0.9,0.6-1.5
			c0-0.7-0.2-1.2-0.6-1.6s-1-0.5-1.9-0.5h-4.1V0.2h4.4c1.4,0,2.5,0.4,3.1,1.1s1,1.6,1,2.8c0,0.7-0.2,1.4-0.6,2c-0.4,0.6-1.1,1-2,1.1
			c0.9,0.1,1.6,0.5,2.1,1.2c0.5,0.6,0.7,1.4,0.7,2.2v0c0,1.2-0.4,2.1-1.1,2.8s-1.8,1.1-3.1,1.1H14.5z"/>
		<path class="st0" d="M28.3,0.2v14.3h-2V0.2H28.3z"/>
	</g>
</g>
<g id="Layer_5">
	<rect x="39.5" y="7" class="st0" width="40" height="1.7"/>
</g>
</svg>
